<svg width="14" height="14" viewBox="0 0 14 14" fill="none" xmlns="http://www.w3.org/2000/svg">
<path d="M11.6667 0.25H2.33333V1.75H11.6667V0.25ZM2.33333 0.25C1.18579 0.25 0.25 1.18579 0.25 2.33333H1.75C1.75 2.01421 2.01421 1.75 2.33333 1.75V0.25ZM0.25 2.33333V11.6667H1.75V2.33333H0.25ZM0.25 11.6667C0.25 12.8142 1.18579 13.75 2.33333 13.75V12.25C2.01421 12.25 1.75 11.9858 1.75 11.6667H0.25ZM2.33333 13.75H11.6667V12.25H2.33333V13.75ZM11.6667 13.75C12.8142 13.75 13.75 12.8142 13.75 11.6667H12.25C12.25 11.9858 11.9858 12.25 11.6667 12.25V13.75ZM13.75 11.6667V2.33333H12.25V11.6667H13.75ZM13.75 2.33333C13.75 1.18579 12.8142 0.25 11.6667 0.25V1.75C11.9858 1.75 12.25 2.01421 12.25 2.33333H13.75Z" fill="#FF7931"/>
<path fill-rule="evenodd" clip-rule="evenodd" d="M9.66653 3.57141H4.33319C3.91415 3.57141 3.57129 3.91427 3.57129 4.33332V9.66665C3.57129 10.0857 3.91415 10.4286 4.33319 10.4286H9.66653C10.0856 10.4286 10.4284 10.0857 10.4284 9.66665V4.33332C10.4284 3.91427 10.0856 3.57141 9.66653 3.57141Z" fill="#FF7931"/>
<path d="M9.66653 2.82141H4.33319V4.32141H9.66653V2.82141ZM4.33319 2.82141C3.49993 2.82141 2.82129 3.50005 2.82129 4.33332H4.32129C4.32129 4.33167 4.32148 4.33124 4.3217 4.33074C4.32213 4.32972 4.32325 4.32772 4.32543 4.32555C4.3276 4.32338 4.3296 4.32225 4.33062 4.32182C4.33112 4.32161 4.33154 4.32141 4.33319 4.32141V2.82141ZM2.82129 4.33332V9.66665H4.32129V4.33332H2.82129ZM2.82129 9.66665C2.82129 10.4999 3.49993 11.1786 4.33319 11.1786V9.67855C4.33154 9.67855 4.33112 9.67836 4.33062 9.67815C4.3296 9.67771 4.3276 9.67659 4.32543 9.67441C4.32325 9.67224 4.32213 9.67025 4.3217 9.66922C4.32148 9.66872 4.32129 9.6683 4.32129 9.66665H2.82129ZM4.33319 11.1786H9.66653V9.67855H4.33319V11.1786ZM9.66653 11.1786C10.4998 11.1786 11.1784 10.4999 11.1784 9.66665H9.67843C9.67843 9.6683 9.67824 9.66872 9.67802 9.66922C9.67759 9.67025 9.67647 9.67224 9.67429 9.67441C9.67212 9.67659 9.67013 9.67771 9.6691 9.67815C9.6686 9.67836 9.66818 9.67855 9.66653 9.67855V11.1786ZM11.1784 9.66665V4.33332H9.67843V9.66665H11.1784ZM11.1784 4.33332C11.1784 3.50005 10.4998 2.82141 9.66653 2.82141V4.32141C9.66818 4.32141 9.6686 4.32161 9.6691 4.32182C9.67013 4.32225 9.67212 4.32338 9.67429 4.32555C9.67647 4.32772 9.67759 4.32972 9.67802 4.33074C9.67824 4.33124 9.67843 4.33167 9.67843 4.33332H11.1784Z" fill="#FF7931"/>
</svg>
